<svg xmlns="http://www.w3.org/2000/svg" width="600" height="400" viewBox="0 0 600 400">
  <!-- خلفية -->
  <rect width="600" height="400" fill="#f8f9fa" />
  
  <!-- سيارة رينج روفر -->
  <g transform="translate(300, 220) scale(1.8)">
    <!-- هيكل السيارة -->
    <path d="M-130,-10 L-120,-40 L120,-40 L130,-10 L130,20 C130,30 120,40 110,40 L-110,40 C-120,40 -130,30 -130,20 Z" fill="#1d3557" />
    
    <!-- العجلات -->
    <circle cx="-80" cy="40" r="22" fill="#111" stroke="#777" stroke-width="3" />
    <circle cx="-80" cy="40" r="12" fill="#333" />
    <circle cx="80" cy="40" r="22" fill="#111" stroke="#777" stroke-width="3" />
    <circle cx="80" cy="40" r="12" fill="#333" />
    
    <!-- النوافذ -->
    <path d="M-110,-35 L-100,-55 L100,-55 L110,-35 Z" fill="#a8dadc" opacity="0.7" />
    <rect x="-100" y="-35" width="200" height="25" fill="#a8dadc" opacity="0.7" />
    
    <!-- المصابيح الأمامية -->
    <rect x="-125" y="-25" rx="5" ry="5" width="20" height="10" fill="#f1faee" opacity="0.9" />
    <rect x="105" y="-25" rx="5" ry="5" width="20" height="10" fill="#f1faee" opacity="0.9" />
    
    <!-- شبكة المقدمة -->
    <rect x="-60" y="-5" width="120" height="15" fill="#f1faee" opacity="0.8" />
    <text x="0" y="5" font-family="Arial, sans-serif" font-size="12" text-anchor="middle" fill="#1d3557" font-weight="bold">RANGE ROVER</text>
    
    <!-- التفاصيل -->
    <line x1="-130" y1="10" x2="130" y2="10" stroke="#0a1a2a" stroke-width="1" />
    <line x1="-120" y1="25" x2="120" y2="25" stroke="#0a1a2a" stroke-width="1" />
    <rect x="-20" y="-40" width="40" height="5" fill="#0a1a2a" />
  </g>
  
  <!-- نص المعلومات -->
  <text x="300" y="350" font-family="Arial, sans-serif" font-size="24" text-anchor="middle" fill="#1d3557" font-weight="bold">رينج روفر</text>
</svg>