<svg xmlns="http://www.w3.org/2000/svg" width="200" height="200" viewBox="0 0 200 200">
  <!-- خلفية دائرية -->
  <circle cx="100" cy="100" r="100" fill="#f1faee" />
  
  <!-- الوجه -->
  <circle cx="100" cy="85" r="50" fill="#a8dadc" />
  
  <!-- العينان -->
  <ellipse cx="80" cy="75" rx="5" ry="7" fill="#1d3557" />
  <ellipse cx="120" cy="75" rx="5" ry="7" fill="#1d3557" />
  
  <!-- الحاجبان -->
  <path d="M70,60 Q80,55 90,60" stroke="#1d3557" stroke-width="3" fill="none" />
  <path d="M110,60 Q120,55 130,60" stroke="#1d3557" stroke-width="3" fill="none" />
  
  <!-- الأنف -->
  <path d="M100,80 L95,95 L105,95 Z" fill="#1d3557" />
  
  <!-- الفم -->
  <path d="M80,110 Q100,120 120,110" stroke="#1d3557" stroke-width="2" fill="none" />
  
  <!-- اللحية -->
  <path d="M70,100 Q100,130 130,100 Q130,120 100,140 Q70,120 70,100 Z" fill="#1d3557" />
  
  <!-- الشعر -->
  <path d="M50,85 C50,35 150,35 150,85" fill="#1d3557" />
  <path d="M50,85 C60,55 140,55 150,85" fill="#1d3557" />
  
  <!-- الشارب -->
  <path d="M85,100 Q100,105 115,100" stroke="#1d3557" stroke-width="3" fill="none" />
  
  <!-- الرقبة -->
  <rect x="85" y="135" width="30" height="20" fill="#a8dadc" />
  
  <!-- الملابس -->
  <path d="M60,155 L85,135 L115,135 L140,155 L140,200 L60,200 Z" fill="#1d3557" />
  
  <!-- تفاصيل الملابس -->
  <rect x="85" y="135" width="30" height="10" fill="white" />
  
  <!-- غترة وعقال -->
  <path d="M50,60 C60,40 140,40 150,60 C140,45 60,45 50,60 Z" fill="white" />
  <path d="M50,60 C50,50 150,50 150,60" stroke="#1d3557" stroke-width="5" fill="none" />
  <path d="M50,60 C50,50 150,50 150,60" stroke="#1d3557" stroke-width="5" fill="none" transform="translate(0, 8)" />
</svg>