<svg xmlns="http://www.w3.org/2000/svg" width="64" height="64" viewBox="0 0 64 64">
  <!-- خلفية دائرية -->
  <circle cx="32" cy="32" r="32" fill="#1a1a2e" />
  
  <!-- شعار السيارة المبسط -->
  <path d="M10,36 C10,30 20,28 32,28 C44,28 54,30 54,36 L54,40 C54,42 52,44 50,44 L14,44 C12,44 10,42 10,40 Z" fill="#e94560" />
  
  <!-- العجلات -->
  <circle cx="18" cy="40" r="5" fill="#16213e" stroke="#fff" stroke-width="1" />
  <circle cx="46" cy="40" r="5" fill="#16213e" stroke="#fff" stroke-width="1" />
  
  <!-- الزجاج الأمامي -->
  <path d="M24,28 L20,20 L44,20 L40,28 Z" fill="#0f3460" />
  
  <!-- السقف -->
  <path d="M20,20 L16,16 L48,16 L44,20 Z" fill="#e94560" />
  
  <!-- المصابيح الأمامية -->
  <rect x="12" cy="32" width="4" height="2" rx="1" fill="#fff" />
  <rect x="48" cy="32" width="4" height="2" rx="1" fill="#fff" />
  
  <!-- الحرف A (أوتو) -->
  <path d="M32,10 L28,18 L36,18 Z" fill="#fff" />
  <rect x="31" y="14" width="2" height="2" fill="#1a1a2e" />
</svg>